<?xml version="1.0" encoding="UTF-8"?>
<svg width="62px" height="43px" viewBox="0 0 62 43" version="1.1" xmlns="http://www.w3.org/2000/svg" xmlns:xlink="http://www.w3.org/1999/xlink">
    <title>right-quote-sign</title>
    <g id="Capterra" stroke="none" stroke-width="1" fill="none" fill-rule="evenodd">
        <g id="Artboard" transform="translate(-351.000000, -4046.000000)" fill="#B44677" fill-rule="nonzero">
            <g id="Group-6" transform="translate(0.000000, 3686.000000)">
                <g id="Group-2" transform="translate(115.000000, 97.000000)">
                    <g id="Group-7" transform="translate(0.000000, 209.000000)">
                        <g id="Group" transform="translate(16.000000, 54.000000)">
                            <g id="right-quote-sign" transform="translate(220.000000, 0.000000)">
                                <path d="M58.1090939,0 L39.0123846,0 C37.2786045,0 35.8714785,1.11916428 35.8714785,2.49813455 L35.8714785,17.6867926 C35.8714785,19.0658129 37.2786045,20.1849272 39.0123846,20.1849272 L48.1524215,20.1849272 C48.033067,24.1620074 46.8709318,27.3445808 44.6722975,29.7377937 C42.9385173,31.6263835 40.3127826,33.1902157 36.8011867,34.4242942 C35.186761,34.9888726 34.4894798,36.5077384 35.2432973,37.7768407 L37.5047497,41.5740052 C38.2334399,42.7930449 40.03632,43.3276957 41.5942095,42.7930449 C45.7527692,41.3641119 49.2643651,39.5554625 52.1288086,37.3571041 C55.621559,34.6741076 58.0148667,31.6463685 59.30892,28.2688906 C60.6030362,24.8914127 61.25,20.2848526 61.25,14.4392177 L61.25,2.49813455 C61.25,1.11921424 59.8428112,0 58.1090939,0 Z" id="Path"></path>
                                <path d="M6.66105157,42.7830524 C10.7693568,41.3591157 14.2620444,39.5505162 17.1453962,37.3571041 C20.6694929,34.6741076 23.075427,31.6563611 24.3694803,28.3038645 C25.6635336,24.9513679 26.3104975,20.329819 26.3104975,14.4392177 L26.3104975,2.49813455 C26.3104975,1.11916428 24.9034343,0 23.1695913,0 L4.07288211,0 C2.33910193,0 0.931975985,1.11916428 0.931975985,2.49813455 L0.931975985,17.6867926 C0.931975985,19.0658129 2.33910193,20.1849272 4.07288211,20.1849272 L13.2129189,20.1849272 C13.0935645,24.1620074 11.9314292,27.3445808 9.73279494,29.7377937 C7.99901476,31.6263835 5.37321724,33.1902157 1.8616842,34.4242942 C0.24725845,34.9888726 -0.450022709,36.5077384 0.30379476,37.7768407 L2.55896536,41.5640127 C3.2877184,42.7830524 5.10316214,43.3226994 6.66105157,42.7830524 Z" id="Path"></path>
                            </g>
                        </g>
                    </g>
                </g>
            </g>
        </g>
    </g>
</svg>