<?xml version="1.0" encoding="UTF-8"?><svg version="1.1" width="33px" height="25px" viewBox="0 0 33.0 25.0" xmlns="http://www.w3.org/2000/svg" xmlns:xlink="http://www.w3.org/1999/xlink"><defs><clipPath id="i0"><path d="M1920,0 L1920,6447 L0,6447 L0,0 L1920,0 Z"></path></clipPath><clipPath id="i1"><path d="M28.4480255,0.341345484 C28.905388,-0.113781828 29.6468849,-0.113781828 30.1041285,0.341345484 C30.5614315,0.796472795 30.5614315,1.53438272 30.1041285,1.98956922 L10.2936298,21.7059921 C9.83638627,22.1610602 9.09465144,22.1609419 8.6375268,21.7059921 L0.342977282,13.450906 C-0.114325761,12.9957195 -0.114325761,12.2578095 0.342977282,11.8026822 C0.800339793,11.3474957 1.54183676,11.3474957 1.99908033,11.8026822 L9.46548912,19.2336269 Z"></path></clipPath></defs><g transform="translate(-1555.0 -1978.0)"><g clip-path="url(#i0)"><g transform="translate(0.0 1182.0)"><g transform="translate(144.0 446.0000000000001)"><g transform="translate(1412.0 351.0)"><g clip-path="url(#i1)"><polygon points="-5.55111512e-17,-5.55111512e-17 30.4471058,-5.55111512e-17 30.4471058,22.0472488 -5.55111512e-17,22.0472488 -5.55111512e-17,-5.55111512e-17" stroke="none" fill="#414AA5"></polygon></g><path d="M30.1041285,0.341345484 C29.6468849,-0.113781828 28.905388,-0.113781828 28.4480255,0.341345484 L9.46548912,19.2336269 L1.99908033,11.8026822 C1.54183676,11.3474957 0.800339793,11.3474957 0.342977282,11.8026822 C-0.114325761,12.2578095 -0.114325761,12.9957195 0.342977282,13.450906 L8.6375268,21.7059921 C9.09465144,22.1609419 9.83638627,22.1610602 10.2936298,21.7059921 L30.1041285,1.98956922 C30.5614315,1.53438272 30.5614315,0.796472795 30.1041285,0.341345484 Z" stroke="#414AA5" stroke-width="2" fill="none" stroke-miterlimit="10"></path></g></g></g></g></g></svg>