<?xml version="1.0" encoding="UTF-8"?><svg version="1.1" width="97px" height="72px" viewBox="0 0 97.0 72.0" xmlns="http://www.w3.org/2000/svg" xmlns:xlink="http://www.w3.org/1999/xlink"><defs><clipPath id="i0"><path d="M3339,0 L3339,2969 L0,2969 L0,0 L3339,0 Z"></path></clipPath><clipPath id="i1"><path d="M85.025169,1.02184187 C86.3921295,-0.340613956 88.608308,-0.340613956 89.974913,1.02184187 C91.3416957,2.38429769 91.3416957,4.59328329 89.974913,5.95591628 L30.7654962,64.9784239 C29.3988912,66.3407025 27.1820017,66.3403482 25.8157522,64.9784239 L1.02508701,40.2662391 C-0.341695671,38.9036061 -0.341695671,36.6946205 1.02508701,35.3321647 C2.39204743,33.9695317 4.60822601,33.9695317 5.97483096,35.3321647 L28.2903576,57.5772237 Z"></path></clipPath></defs><g transform="translate(-1523.0 -1976.0)"><g clip-path="url(#i0)"><g transform="translate(1526.0 1979.0)"><g clip-path="url(#i1)"><polygon points="0,0 91,0 91,66 0,66 0,0" stroke="none" fill="#000000"></polygon></g><path d="M89.974913,1.02184187 C88.608308,-0.340613956 86.3921295,-0.340613956 85.025169,1.02184187 L28.2903576,57.5772237 L5.97483096,35.3321647 C4.60822601,33.9695317 2.39204743,33.9695317 1.02508701,35.3321647 C-0.341695671,36.6946205 -0.341695671,38.9036061 1.02508701,40.2662391 L25.8157522,64.9784239 C27.1820017,66.3403482 29.3988912,66.3407025 30.7654962,64.9784239 L89.974913,5.95591628 C91.3416957,4.59328329 91.3416957,2.38429769 89.974913,1.02184187 Z" stroke="#000000" stroke-width="6" fill="none" stroke-miterlimit="10"></path></g></g></g></svg>